<?xml version="1.0" encoding="UTF-8"?>
<svg width="46px" height="46px" viewBox="0 0 46 46" version="1.1" xmlns="http://www.w3.org/2000/svg" xmlns:xlink="http://www.w3.org/1999/xlink">
    <title>用户</title>
    <defs>
        <linearGradient x1="50%" y1="0%" x2="50%" y2="100%" id="linearGradient-1">
            <stop stop-color="#6CB6FF" offset="0%"></stop>
            <stop stop-color="#4C66C4" offset="100%"></stop>
        </linearGradient>
        <path d="M0.0256590892,16.6724797 C0.0256590892,25.8734953 7.47620337,33.3323922 16.6669155,33.3323922 C25.8576276,33.3323922 33.3081719,25.8734953 33.3081719,16.6724797 C33.3081719,7.47146404 25.8576276,0.0125671338 16.6669155,0.0125671338 C7.47620337,0.0125671338 0.0256590892,7.47146404 0.0256590892,16.6724797 L0.0256590892,16.6724797 Z" id="path-2"></path>
    </defs>
    <g id="用户" stroke="none" stroke-width="1" fill="none" fill-rule="evenodd">
        <g id="分组-2" transform="translate(3.000000, 3.000000)">
            <circle id="椭圆形" stroke="#00C0FF" fill-rule="nonzero" cx="20" cy="20" r="20"></circle>
            <g id="yonghu" transform="translate(3.333333, 3.333333)">
                <mask id="mask-3" fill="white">
                    <use xlink:href="#path-2"></use>
                </mask>
                <use id="路径" fill="url(#linearGradient-1)" fill-rule="nonzero" xlink:href="#path-2"></use>
                <g id="分组-10" mask="url(#mask-3)">
                    <g transform="translate(6.250000, 4.583333)">
                        <path d="M1.37429321,18.1018795 C0.800072024,18.612101 0.392644385,22.1477867 0.0345167733,25.2337546 C-0.156974231,26.8838232 6.4246129,28.8932292 10,28.8932292 C13.7047202,28.8932292 20.9690652,26.9093734 20.7794493,25.2752263 C20.4201347,22.1785805 20.0116103,18.6121147 19.4347635,18.1018795 C18.8614153,17.5952084 17.4669757,16.4932874 12.6395248,14.3780241 L8.22261967,14.3461358 C3.39516887,16.4649422 1.94764143,17.5952084 1.37429321,18.1018795 Z" id="路径" fill="#98F6FE" fill-rule="evenodd"></path>
                        <path d="M12.7492396,10.1262387 L12.7492396,15.4834883 C11.4609756,17.0637352 9.35162031,17.0105879 8.06335629,15.4834883 L8.06335629,10.1262387 C8.06335629,7.23148146 12.7492396,7.23148146 12.7492396,10.1262387 Z" id="路径" fill="#D6FCFF" fill-rule="evenodd"></path>
                        <path d="M12.7492396,10.1262387 L12.7492396,13.7119111 C11.8609037,14.3603084 11.0079597,14.7217101 10.4062979,14.7217101 C9.80463617,14.7217101 8.94815297,14.3603084 8.06335629,13.7119111 L8.06335629,10.1262387 C8.06335629,7.23148146 12.7492396,7.23148146 12.7492396,10.1262387 L12.7492396,10.1262387 Z" id="路径" fill="#67EFFF" fill-rule="evenodd"></path>
                        <polygon id="路径" fill="#FFFFFF" fill-rule="evenodd" points="7.8403875 14.2894453 6.17696973 15.1894065 8.58715592 18.5341444 10.4169155 16.7979987 7.8403875 14.2894453"></polygon>
                        <polygon id="路径" fill="#FFFFFF" fill-rule="evenodd" points="12.9934435 14.2894453 14.6568613 15.1894065 12.2466751 18.5341444 10.4169155 16.7979987 12.9934435 14.2894453"></polygon>
                        <path d="M3.93666446,27.6003017 L4.31181825,27.6003017 C4.29412232,25.9350191 4.29412232,24.7374329 4.29412232,24.7374329 C4.29412232,24.7374329 4.12778055,25.9846233 3.93666446,27.6003017 L3.93666446,27.6003017 Z M16.8759315,27.6003017 L16.5007776,27.6003017 C16.5184736,25.9350191 16.5184736,24.7374329 16.5184736,24.7374329 C16.5184736,24.7374329 16.6848153,25.9846233 16.8759315,27.6003017 Z" id="形状" fill="#49B9C3" fill-rule="nonzero"></path>
                        <path d="M10.4169155,0.896321226 C2.5528424,0.896321226 5.38065267,10.4096911 5.89383475,11.1679262 C6.46010463,12.0041106 9.14634744,14.2185822 10.4169155,14.2185822 C11.6874836,14.2185822 14.3737264,12.0041106 14.9399963,11.1679262 C15.4531784,10.4096911 18.2809886,0.896321226 10.4169155,0.896321226 L10.4169155,0.896321226 Z" id="路径" fill="#D6FCFF" fill-rule="evenodd"></path>
                        <path d="M4.37198443,7.14290262 C4.78606928,7.00826274 5.30986894,7.47595916 5.54345528,8.19167635 C5.77704162,8.90739357 5.63547413,9.59476555 5.22138929,9.73294858 C4.80730444,9.86758845 4.28350478,9.39989204 4.04991844,8.68417485 C3.8163321,7.96845762 3.96143878,7.28108565 4.37198443,7.14290262 Z M16.4406115,7.14290262 C16.0265266,7.00826274 15.502727,7.47595916 15.2691406,8.19167635 C15.0355543,8.90739357 15.1771218,9.59476555 15.5912066,9.73294858 C16.0052915,9.86758845 16.5290912,9.39989204 16.7626775,8.68417485 C16.9962638,7.96845762 16.8511571,7.28108565 16.4406115,7.14290262 L16.4406115,7.14290262 Z" id="形状" fill="#D6FCFF" fill-rule="nonzero"></path>
                        <path d="M6.82110172,4.43857401 C6.36454662,7.16017298 5.22138929,6.90888898 5.31340814,10.1021287 C4.9453327,7.61248416 4.39675875,4.29940135 5.94692258,2.11516357 C7.18563796,0.371639266 11.2875555,-0.877048923 13.9419456,1.2144071 C16.8759314,1.89867273 15.959282,8.42432479 15.5664323,9.65754928 C15.2903757,7.65887506 14.6780964,6.82770493 13.8994753,4.481099 C12.8483368,5.30840321 8.17307107,5.4901009 6.82110172,4.43857401 L6.82110172,4.43857401 Z" id="路径" fill="#516ED3" fill-rule="evenodd"></path>
                    </g>
                </g>
            </g>
        </g>
    </g>
</svg>